<?xml version="1.0" encoding="UTF-8"?>
<svg viewBox="0 0 1100 820" xmlns="http://www.w3.org/2000/svg" font-family="Georgia, 'Times New Roman', serif">

  <!-- Background -->
  <rect width="1100" height="820" fill="#faf8f5" rx="0"/>

  <!-- Subtle warm grid texture via gradient -->
  <defs>
    <linearGradient id="bgGrad" x1="0" y1="0" x2="0" y2="1">
      <stop offset="0%" stop-color="#f5f0e8"/>
      <stop offset="100%" stop-color="#faf8f5"/>
    </linearGradient>
    <linearGradient id="paGrad" x1="0" y1="0" x2="0" y2="1">
      <stop offset="0%" stop-color="#2c3e50"/>
      <stop offset="100%" stop-color="#1a252f"/>
    </linearGradient>
    <linearGradient id="coreGrad" x1="0" y1="0" x2="0" y2="1">
      <stop offset="0%" stop-color="#8e6b3e"/>
      <stop offset="100%" stop-color="#6b4f2e"/>
    </linearGradient>
    <linearGradient id="agentGrad" x1="0" y1="0" x2="0" y2="1">
      <stop offset="0%" stop-color="#4a6741"/>
      <stop offset="100%" stop-color="#344d2d"/>
    </linearGradient>
    <linearGradient id="houseGrad" x1="0" y1="0" x2="0" y2="1">
      <stop offset="0%" stop-color="#5b7fa6"/>
      <stop offset="100%" stop-color="#3d5c7a"/>
    </linearGradient>
    <linearGradient id="medGrad" x1="0" y1="0" x2="0" y2="1">
      <stop offset="0%" stop-color="#7a5b8a"/>
      <stop offset="100%" stop-color="#5a3d6a"/>
    </linearGradient>
    <linearGradient id="moneyGrad" x1="0" y1="0" x2="0" y2="1">
      <stop offset="0%" stop-color="#4a7a5b"/>
      <stop offset="100%" stop-color="#2d5c3d"/>
    </linearGradient>
    <linearGradient id="estateGrad" x1="0" y1="0" x2="0" y2="1">
      <stop offset="0%" stop-color="#7a6040"/>
      <stop offset="100%" stop-color="#5a4428"/>
    </linearGradient>
    <linearGradient id="faithGrad" x1="0" y1="0" x2="0" y2="1">
      <stop offset="0%" stop-color="#8a6060"/>
      <stop offset="100%" stop-color="#6a4040"/>
    </linearGradient>
    <linearGradient id="emotGrad" x1="0" y1="0" x2="0" y2="1">
      <stop offset="0%" stop-color="#7a7040"/>
      <stop offset="100%" stop-color="#5a5028"/>
    </linearGradient>
    <linearGradient id="recordGrad" x1="0" y1="0" x2="0" y2="1">
      <stop offset="0%" stop-color="#506070"/>
      <stop offset="100%" stop-color="#30404e"/>
    </linearGradient>
    <linearGradient id="commGrad" x1="0" y1="0" x2="0" y2="1">
      <stop offset="0%" stop-color="#607050"/>
      <stop offset="100%" stop-color="#404e30"/>
    </linearGradient>
    <filter id="shadow" x="-5%" y="-5%" width="115%" height="120%">
      <feDropShadow dx="2" dy="3" stdDeviation="4" flood-color="#00000025"/>
    </filter>
    <filter id="softShadow" x="-5%" y="-5%" width="115%" height="120%">
      <feDropShadow dx="1" dy="2" stdDeviation="3" flood-color="#00000018"/>
    </filter>
  </defs>

  <rect width="1100" height="820" fill="url(#bgGrad)"/>

  <!-- ═══════════════════════════════════════════════════ -->
  <!-- TITLE AREA                                          -->
  <!-- ═══════════════════════════════════════════════════ -->
  <text x="550" y="38" text-anchor="middle" font-size="22" font-weight="bold" fill="#2c3e50" letter-spacing="1">lifeTracker</text>
  <text x="550" y="58" text-anchor="middle" font-size="12" fill="#6b5a3e" font-style="italic">Personal Assistance Ecosystem  ·  One Tracker, Six Discipline Agents</text>
  <line x1="80" y1="68" x2="1020" y2="68" stroke="#c8b89a" stroke-width="1"/>

  <!-- ═══════════════════════════════════════════════════ -->
  <!-- PERSONAL ASSISTANT (PA) — top tier                 -->
  <!-- ═══════════════════════════════════════════════════ -->
  <rect x="330" y="80" width="440" height="78" rx="10" fill="url(#paGrad)" filter="url(#shadow)"/>
  <rect x="330" y="80" width="440" height="4" rx="2" fill="#c8a96e"/>
  <text x="550" y="110" text-anchor="middle" font-size="15" font-weight="bold" fill="#f5f0e8" letter-spacing="0.5">Personal Assistant  (PA)</text>
  <text x="550" y="128" text-anchor="middle" font-size="11" fill="#c8b89a">life.pa.*  ·  Chief of Staff + Wise Counsel</text>
  <text x="550" y="147" text-anchor="middle" font-size="10" fill="#a09080" font-style="italic">Routes all cross-domain queries  ·  Knows your whole life, not just one domain</text>

  <!-- ═══════════════════════════════════════════════════ -->
  <!-- VERTICAL CONNECTOR PA → agents row                 -->
  <!-- ═══════════════════════════════════════════════════ -->
  <line x1="550" y1="158" x2="550" y2="195" stroke="#8e7b5e" stroke-width="1.5" stroke-dasharray="4,3"/>
  <line x1="130" y1="195" x2="970" y2="195" stroke="#8e7b5e" stroke-width="1.5"/>

  <!-- ═══════════════════════════════════════════════════ -->
  <!-- 6 DISCIPLINE AGENTS — second tier                  -->
  <!-- ═══════════════════════════════════════════════════ -->

  <!-- Agent box dimensions: w=145, h=100, row y=200 -->
  <!-- Positions (center x): 130, 270(gap), 410, 550... let me space evenly -->
  <!-- 6 agents across 1100px with margins: -->
  <!-- x starts: 30, spacing ~170 → centers at 102, 272, 442, 612, 782, 952 -->

  <!-- houseAgent -->
  <line x1="108" y1="195" x2="108" y2="208" stroke="#8e7b5e" stroke-width="1.5"/>
  <rect x="32" y="208" width="152" height="110" rx="8" fill="url(#houseGrad)" filter="url(#softShadow)"/>
  <rect x="32" y="208" width="152" height="4" rx="2" fill="#a8c4e0"/>
  <text x="108" y="232" text-anchor="middle" font-size="13" font-weight="bold" fill="#f0f4f8">houseAgent</text>
  <text x="108" y="250" text-anchor="middle" font-size="10" fill="#c8d8ea">house.*</text>
  <line x1="48" y1="260" x2="168" y2="260" stroke="#7090b0" stroke-width="0.5" opacity="0.5"/>
  <text x="108" y="274" text-anchor="middle" font-size="9" fill="#b0c8e0">16 discipline agents</text>
  <text x="108" y="288" text-anchor="middle" font-size="9" fill="#b0c8e0">systems · designs · finance</text>
  <text x="108" y="302" text-anchor="middle" font-size="9" fill="#b0c8e0">life · core</text>

  <!-- medicalAgent -->
  <line x1="278" y1="195" x2="278" y2="208" stroke="#8e7b5e" stroke-width="1.5"/>
  <rect x="202" y="208" width="152" height="110" rx="8" fill="url(#medGrad)" filter="url(#softShadow)"/>
  <rect x="202" y="208" width="152" height="4" rx="2" fill="#c4a8d8"/>
  <text x="278" y="232" text-anchor="middle" font-size="13" font-weight="bold" fill="#f4f0f8">medicalAgent</text>
  <text x="278" y="250" text-anchor="middle" font-size="10" fill="#d8c8ea">medical.*</text>
  <line x1="218" y1="260" x2="338" y2="260" stroke="#906090" stroke-width="0.5" opacity="0.5"/>
  <text x="278" y="274" text-anchor="middle" font-size="9" fill="#d0b8e8">FHIR R4  ·  5M's</text>
  <text x="278" y="288" text-anchor="middle" font-size="9" fill="#d0b8e8">Epic / ARC  ·  UHC</text>
  <text x="278" y="302" text-anchor="middle" font-size="9" fill="#d0b8e8">CPAP  ·  BP  ·  Labs</text>

  <!-- moneyAgent -->
  <line x1="448" y1="195" x2="448" y2="208" stroke="#8e7b5e" stroke-width="1.5"/>
  <rect x="372" y="208" width="152" height="110" rx="8" fill="url(#moneyGrad)" filter="url(#softShadow)"/>
  <rect x="372" y="208" width="152" height="4" rx="2" fill="#a8d8b8"/>
  <text x="448" y="232" text-anchor="middle" font-size="13" font-weight="bold" fill="#f0f8f2">moneyAgent</text>
  <text x="448" y="250" text-anchor="middle" font-size="10" fill="#c8e8d0">money.*</text>
  <line x1="388" y1="260" x2="508" y2="260" stroke="#509060" stroke-width="0.5" opacity="0.5"/>
  <text x="448" y="274" text-anchor="middle" font-size="9" fill="#b8e0c8">Beancount  ·  OFX</text>
  <text x="448" y="288" text-anchor="middle" font-size="9" fill="#b8e0c8">RMDs  ·  IRMAA</text>
  <text x="448" y="302" text-anchor="middle" font-size="9" fill="#b8e0c8">Owl runway model</text>

  <!-- estateAgent -->
  <line x1="618" y1="195" x2="618" y2="208" stroke="#8e7b5e" stroke-width="1.5"/>
  <rect x="542" y="208" width="152" height="110" rx="8" fill="url(#estateGrad)" filter="url(#softShadow)"/>
  <rect x="542" y="208" width="152" height="4" rx="2" fill="#d8b888"/>
  <text x="618" y="232" text-anchor="middle" font-size="13" font-weight="bold" fill="#f8f4ee">estateAgent</text>
  <text x="618" y="250" text-anchor="middle" font-size="10" fill="#e8d0a8">estate.*</text>
  <line x1="558" y1="260" x2="678" y2="260" stroke="#907040" stroke-width="0.5" opacity="0.5"/>
  <text x="618" y="274" text-anchor="middle" font-size="9" fill="#e0c890">7 legal pillars</text>
  <text x="618" y="288" text-anchor="middle" font-size="9" fill="#e0c890">§121 · step-up basis</text>
  <text x="618" y="302" text-anchor="middle" font-size="9" fill="#e0c890">RLT · DPOA · POLST</text>

  <!-- faithAgent -->
  <line x1="788" y1="195" x2="788" y2="208" stroke="#8e7b5e" stroke-width="1.5"/>
  <rect x="712" y="208" width="152" height="110" rx="8" fill="url(#faithGrad)" filter="url(#softShadow)"/>
  <rect x="712" y="208" width="152" height="4" rx="2" fill="#d8a8a8"/>
  <text x="788" y="232" text-anchor="middle" font-size="13" font-weight="bold" fill="#f8f0f0">faithAgent</text>
  <text x="788" y="250" text-anchor="middle" font-size="10" fill="#e8c8c8">faith.*</text>
  <line x1="728" y1="260" x2="848" y2="260" stroke="#906060" stroke-width="0.5" opacity="0.5"/>
  <text x="788" y="274" text-anchor="middle" font-size="9" fill="#e0b8b8">Ignatian Examen</text>
  <text x="788" y="288" text-anchor="middle" font-size="9" fill="#e0b8b8">consolation / desolation</text>
  <text x="788" y="302" text-anchor="middle" font-size="9" fill="#e0b8b8">Catholic practice</text>

  <!-- emotionalAgent -->
  <line x1="958" y1="195" x2="958" y2="208" stroke="#8e7b5e" stroke-width="1.5"/>
  <rect x="882" y="208" width="152" height="110" rx="8" fill="url(#emotGrad)" filter="url(#softShadow)"/>
  <rect x="882" y="208" width="152" height="4" rx="2" fill="#d8d0a8"/>
  <text x="958" y="232" text-anchor="middle" font-size="13" font-weight="bold" fill="#f8f8ee">emotionalAgent</text>
  <text x="958" y="250" text-anchor="middle" font-size="10" fill="#e8e0c0">emotional.*</text>
  <line x1="898" y1="260" x2="1018" y2="260" stroke="#907050" stroke-width="0.5" opacity="0.5"/>
  <text x="958" y="274" text-anchor="middle" font-size="9" fill="#e0d8b0">CBT · PERMA</text>
  <text x="958" y="288" text-anchor="middle" font-size="9" fill="#e0d8b0">Erikson Stage 8</text>
  <text x="958" y="302" text-anchor="middle" font-size="9" fill="#e0d8b0">Worden grief tasks</text>

  <!-- ═══════════════════════════════════════════════════ -->
  <!-- CROSS-AGENT SIGNALS label                          -->
  <!-- ═══════════════════════════════════════════════════ -->
  <text x="550" y="355" text-anchor="middle" font-size="10" fill="#8e7b5e" font-style="italic">↔  cross-agent signals  (consolation/desolation · wellness · financial runway · home accessibility)</text>
  <line x1="80" y1="365" x2="1020" y2="365" stroke="#c8b89a" stroke-width="0.5" stroke-dasharray="6,4"/>

  <!-- ═══════════════════════════════════════════════════ -->
  <!-- RECORD AGENT — shared service tier                 -->
  <!-- ═══════════════════════════════════════════════════ -->
  <rect x="200" y="378" width="700" height="72" rx="8" fill="url(#recordGrad)" filter="url(#shadow)"/>
  <rect x="200" y="378" width="700" height="4" rx="2" fill="#90a8b8"/>
  <text x="550" y="403" text-anchor="middle" font-size="14" font-weight="bold" fill="#e8f0f4">RecordAgent  —  Common Records Service</text>
  <text x="550" y="421" text-anchor="middle" font-size="10.5" fill="#b0c8d8">life.core.records  ·  git-as-master  ·  auto_push=true  ·  lifeTracker-data (private repo)</text>
  <text x="550" y="439" text-anchor="middle" font-size="10" fill="#90aaba" font-style="italic">Read · Write · Append · Register Document · Get Action Items  —  no agent touches the filesystem directly</text>

  <!-- connectors: agents → RecordAgent -->
  <line x1="108" y1="318" x2="108" y2="378" stroke="#506070" stroke-width="1" stroke-dasharray="3,3" opacity="0.6"/>
  <line x1="278" y1="318" x2="278" y2="378" stroke="#506070" stroke-width="1" stroke-dasharray="3,3" opacity="0.6"/>
  <line x1="448" y1="318" x2="448" y2="378" stroke="#506070" stroke-width="1" stroke-dasharray="3,3" opacity="0.6"/>
  <line x1="618" y1="318" x2="618" y2="378" stroke="#506070" stroke-width="1" stroke-dasharray="3,3" opacity="0.6"/>
  <line x1="788" y1="318" x2="788" y2="378" stroke="#506070" stroke-width="1" stroke-dasharray="3,3" opacity="0.6"/>
  <line x1="958" y1="318" x2="958" y2="378" stroke="#506070" stroke-width="1" stroke-dasharray="3,3" opacity="0.6"/>

  <!-- ═══════════════════════════════════════════════════ -->
  <!-- PYTRACKER.CORE — infrastructure tier               -->
  <!-- ═══════════════════════════════════════════════════ -->
  <line x1="550" y1="450" x2="550" y2="475" stroke="#8e7b5e" stroke-width="1.5" stroke-dasharray="4,3"/>
  <rect x="200" y="475" width="700" height="62" rx="8" fill="url(#commGrad)" filter="url(#softShadow)"/>
  <rect x="200" y="475" width="700" height="4" rx="2" fill="#a0c088"/>
  <text x="550" y="500" text-anchor="middle" font-size="13" font-weight="bold" fill="#f0f8ee">pytracker.core</text>
  <text x="550" y="518" text-anchor="middle" font-size="10.5" fill="#c8e0b8">comm  ·  auth  ·  records  ·  llm  ·  models</text>
  <text x="550" y="534" text-anchor="middle" font-size="10" fill="#a0c890" font-style="italic">Shared Python package  ·  used by all discipline agents</text>

  <!-- ═══════════════════════════════════════════════════ -->
  <!-- COMMUNICATION CHANNELS — bottom tier               -->
  <!-- ═══════════════════════════════════════════════════ -->
  <line x1="550" y1="537" x2="550" y2="570" stroke="#8e7b5e" stroke-width="1.5" stroke-dasharray="4,3"/>
  <line x1="180" y1="570" x2="920" y2="570" stroke="#8e7b5e" stroke-width="1.5"/>

  <!-- Channel boxes -->
  <!-- Voice / Local Mac -->
  <line x1="220" y1="570" x2="220" y2="582" stroke="#8e7b5e" stroke-width="1.5"/>
  <rect x="130" y="582" width="180" height="60" rx="7" fill="#4a4030" filter="url(#softShadow)"/>
  <rect x="130" y="582" width="180" height="3" rx="1.5" fill="#c8a870"/>
  <text x="220" y="604" text-anchor="middle" font-size="12" font-weight="bold" fill="#f5e8c8">Voice  ·  Local Mac</text>
  <text x="220" y="620" text-anchor="middle" font-size="9.5" fill="#c0a870">speech-to-speech</text>
  <text x="220" y="634" text-anchor="middle" font-size="9.5" fill="#c0a870">on-device LLM</text>

  <!-- Web / Mobile -->
  <line x1="440" y1="570" x2="440" y2="582" stroke="#8e7b5e" stroke-width="1.5"/>
  <rect x="350" y="582" width="180" height="60" rx="7" fill="#303a4a" filter="url(#softShadow)"/>
  <rect x="350" y="582" width="180" height="3" rx="1.5" fill="#90a8c8"/>
  <text x="440" y="604" text-anchor="middle" font-size="12" font-weight="bold" fill="#d8e8f8">Web  ·  Mobile</text>
  <text x="440" y="620" text-anchor="middle" font-size="9.5" fill="#a8c8e0">Flask UI (pyTrackers)</text>
  <text x="440" y="634" text-anchor="middle" font-size="9.5" fill="#a8c8e0">Jinja2 templates</text>

  <!-- Notifications -->
  <line x1="660" y1="570" x2="660" y2="582" stroke="#8e7b5e" stroke-width="1.5"/>
  <rect x="570" y="582" width="180" height="60" rx="7" fill="#2a3a2a" filter="url(#softShadow)"/>
  <rect x="570" y="582" width="180" height="3" rx="1.5" fill="#88b888"/>
  <text x="660" y="604" text-anchor="middle" font-size="12" font-weight="bold" fill="#d8f0d8">Notifications</text>
  <text x="660" y="620" text-anchor="middle" font-size="9.5" fill="#a8d8a8">Twilio SMS</text>
  <text x="660" y="634" text-anchor="middle" font-size="9.5" fill="#a8d8a8">monthly check-in</text>

  <!-- External APIs -->
  <line x1="880" y1="570" x2="880" y2="582" stroke="#8e7b5e" stroke-width="1.5"/>
  <rect x="790" y="582" width="180" height="60" rx="7" fill="#3a2a2a" filter="url(#softShadow)"/>
  <rect x="790" y="582" width="180" height="3" rx="1.5" fill="#c88888"/>
  <text x="880" y="604" text-anchor="middle" font-size="12" font-weight="bold" fill="#f8d8d8">External APIs</text>
  <text x="880" y="620" text-anchor="middle" font-size="9.5" fill="#e0b8b8">Epic FHIR · LiturgicalAPI</text>
  <text x="880" y="634" text-anchor="middle" font-size="9.5" fill="#e0b8b8">ResMed myAir · Plaid</text>

  <!-- ═══════════════════════════════════════════════════ -->
  <!-- DATA REPOS — bottom strip                          -->
  <!-- ═══════════════════════════════════════════════════ -->
  <line x1="80" y1="670" x2="1020" y2="670" stroke="#c8b89a" stroke-width="0.5" stroke-dasharray="6,4"/>
  <text x="550" y="688" text-anchor="middle" font-size="10" fill="#8e7b5e" font-style="italic">Data Repositories  ·  Private Git  ·  All records local / on-premises</text>

  <!-- repo pills -->
  <rect x="80" y="698" width="185" height="34" rx="17" fill="#2c3e50" opacity="0.85"/>
  <text x="172" y="720" text-anchor="middle" font-size="10" fill="#c8d8e8">lifeTracker-data  (JSON records)</text>

  <rect x="285" y="698" width="185" height="34" rx="17" fill="#2c3e50" opacity="0.85"/>
  <text x="377" y="720" text-anchor="middle" font-size="10" fill="#c8d8e8">lifeTracker  (code · design docs)</text>

  <rect x="490" y="698" width="185" height="34" rx="17" fill="#2c3e50" opacity="0.85"/>
  <text x="582" y="720" text-anchor="middle" font-size="10" fill="#c8d8e8">frankrojas6591 / GitHub</text>

  <rect x="695" y="698" width="185" height="34" rx="17" fill="#2c3e50" opacity="0.85"/>
  <text x="787" y="720" text-anchor="middle" font-size="10" fill="#c8d8e8">SSH alias: github.com-fxr</text>

  <rect x="900" y="698" width="130" height="34" rx="17" fill="#2c3e50" opacity="0.85"/>
  <text x="965" y="720" text-anchor="middle" font-size="10" fill="#c8d8e8">id_ed25519_fxr</text>

  <!-- ═══════════════════════════════════════════════════ -->
  <!-- FOOTER                                             -->
  <!-- ═══════════════════════════════════════════════════ -->
  <line x1="80" y1="756" x2="1020" y2="756" stroke="#c8b89a" stroke-width="0.5"/>
  <text x="550" y="774" text-anchor="middle" font-size="9" fill="#a09080">lifeTracker  ·  pyTrackers ecosystem  ·  Frank Rojas  ·  June 2026  ·  v1.0</text>
  <text x="550" y="790" text-anchor="middle" font-size="9" fill="#b8a888" font-style="italic">"The best property manager you never have to manage — your wisest counselor, always available."</text>

</svg>
